<svg xmlns="http://www.w3.org/2000/svg" width="153" height="38" viewBox="0 0 153 38" fill="none"><path d="M61.873 20.6678C58.528 19.8839 57.8452 19.2593 57.8452 18.5662C57.8452 17.4589 59.2035 16.7156 61.2288 16.7156C63.1695 16.7156 64.7966 17.6635 65.276 19.072L65.4985 19.7275L69.8685 18.6747L69.5844 17.8956C68.4181 14.6928 65.0613 12.5419 61.2274 12.5419C56.4152 12.5419 53.1787 15.056 53.1787 18.7983C53.1787 22.4807 55.9934 23.8179 60.8624 24.8827C64.9637 25.7965 65.7881 26.5384 65.7881 27.441C65.7881 28.8004 63.9132 29.7527 61.231 29.7527C58.3609 29.7527 56.4642 28.3854 56.3974 26.2726L56.3743 25.5453H51.9107L51.9257 26.3103C52.0165 30.8653 55.7505 33.9286 61.2288 33.9286C66.722 33.9286 70.4124 31.2617 70.4124 27.2878C70.4124 23.1814 67.2804 21.7508 61.873 20.6678Z" fill="white"></path><path d="M74.3912 33.5406H79.4508V20.9978H91.4701V16.4423H79.4508V10.3694H93.2738V5.81037H74.3912V33.5406Z" fill="white"></path><path d="M108.899 5.42857C100.596 5.42857 95.0152 11.1379 95.0152 19.638C95.0152 28.1834 100.593 33.9233 108.899 33.9233C117.205 33.9233 122.78 28.1829 122.78 19.6376C122.78 11.1374 117.204 5.42857 108.899 5.42857ZM108.899 29.3673C103.62 29.3673 100.071 25.4598 100.071 19.638C100.071 13.865 103.62 9.9876 108.899 9.9876C114.178 9.9876 117.726 13.865 117.726 19.638C117.726 25.4554 114.177 29.3673 108.899 29.3673Z" fill="white"></path><path d="M152.805 28.9811C146.625 28.9811 143.203 23.4476 142.301 21.7508L141.198 19.6752L142.299 17.6001C145.134 12.2664 149.73 10.3694 152.803 10.3694H152.992V5.80993H152.801C148.37 5.80993 142.391 8.17869 138.565 14.7606C134.742 8.17869 128.761 5.80993 124.328 5.80993H124.14V10.3694H124.335C127.408 10.3694 132.004 12.2616 134.839 17.6001L135.942 19.6752L134.835 21.7508C133.934 23.4476 130.511 28.9811 124.331 28.9811H124.14V33.5406H124.335C130.036 33.5406 135.306 30.2098 138.572 24.5895C141.837 30.2098 147.107 33.5406 152.808 33.5406H153V28.9811H152.805Z" fill="white"></path><path d="M4.75201 14.6282H4.45675C4.12922 14.6272 3.8128 14.5096 3.56448 14.2965C3.31616 14.0834 3.15226 13.7888 3.1023 13.4659L3.09199 13.3908H1.66361L1.65286 13.4659C1.60307 13.7889 1.43922 14.0836 1.19086 14.2967C0.942498 14.5099 0.625982 14.6274 0.298401 14.6282H0V15.6842H4.75201V14.6282Z" fill="#D8FF6C"></path><path d="M35.874 4.44681e-06C32.7022 -0.00237307 29.6032 0.948665 26.9809 2.72917C24.3587 4.50967 22.3348 7.03706 21.173 9.98193H18.5071V10.2757C18.5077 10.6023 18.6256 10.9179 18.8393 11.1653C19.053 11.4127 19.3484 11.5756 19.6721 11.6244L19.7491 11.6329V13.0577L19.6748 13.068C19.3509 13.1166 19.0553 13.2795 18.8416 13.5271C18.6278 13.7746 18.5101 14.0905 18.5098 14.4172V14.7082H24.8806L24.9644 14.1047C25.1312 12.9497 25.4861 11.8296 26.0151 10.7889C27.0658 8.72567 28.7348 7.0405 30.79 5.96779C31.6452 5.52188 32.556 5.19115 33.4984 4.98426V13.389H33.7955C34.1234 13.39 34.4402 13.508 34.6885 13.7217C34.9369 13.9353 35.1006 14.2305 35.1499 14.554L35.1607 14.6282H36.5882L36.5989 14.5536C36.6482 14.2298 36.812 13.9344 37.0607 13.7208C37.3094 13.5071 37.6266 13.3894 37.9547 13.389H38.25V4.44681e-06H35.874Z" fill="#86F1A7"></path><path d="M38.25 12.8619V13.389H37.9547C37.6266 13.3894 37.3094 13.5071 37.0607 13.7208C36.812 13.9344 36.6482 14.2298 36.5989 14.5536L36.5882 14.6282H35.1607L35.1499 14.554C35.1006 14.2305 34.9369 13.9353 34.6885 13.7217C34.4402 13.508 34.1234 13.39 33.7955 13.389H33.4984V12.8619V23.4706C30.7668 23.8912 28.1927 25.0168 26.0314 26.736C23.8701 28.4551 22.1967 30.7081 21.1771 33.2715H19.6492V33.5634C19.6489 33.8901 19.5312 34.206 19.3175 34.4535C19.1037 34.7011 18.8081 34.8639 18.4843 34.9126L18.4099 34.9229V36.3459L18.4852 36.3562C18.8089 36.405 19.1044 36.5679 19.3181 36.8155C19.5318 37.063 19.6496 37.3787 19.6501 37.7054V38H24.8811L24.9653 37.3969C25.7369 32.0514 30.4275 28.0185 35.8744 28.0185H38.2491V12.8632L38.25 12.8619Z" fill="#D1CCC5"></path><path d="M19.6497 37.7067C19.6492 37.38 19.5314 37.0643 19.3177 36.8168C19.104 36.5693 18.8085 36.4063 18.4847 36.3575L18.4095 36.3472L18.4099 34.9229L18.4843 34.9126C18.8081 34.8639 19.1037 34.7011 19.3175 34.4535C19.5312 34.206 19.6489 33.8901 19.6492 33.5634V33.2715L17.077 33.2715C16.0559 30.692 14.368 28.4287 12.1852 26.7118C10.0326 25.0043 7.47025 23.8878 4.75201 23.4728V14.6282H4.45675C4.12922 14.6272 3.8128 14.5096 3.56448 14.2965C3.31616 14.0834 3.15226 13.7888 3.1023 13.4659L3.09199 13.3908H1.66361L1.65286 13.4659C1.60307 13.7889 1.43922 14.0836 1.19086 14.2967C0.942498 14.5099 0.625982 14.6274 0.298401 14.6282H0V28.0172H2.37735C7.82608 28.0172 12.5163 32.0501 13.2869 37.3974L13.3703 38L19.6501 38L19.6497 37.7067Z" fill="#D8FF6C"></path><path d="M19.668 11.6235C19.3444 11.5747 19.0489 11.4118 18.8352 11.1644C18.6215 10.917 18.5037 10.6014 18.5031 10.2748V9.98059H17.0734C14.7256 3.99626 8.8669 4.44602e-06 2.37735 4.44602e-06H0V14.6282H0.298401C0.625982 14.6274 0.942498 14.5099 1.19086 14.2967C1.43922 14.0836 1.60307 13.7889 1.65286 13.4659L1.66361 13.3908H3.09199L3.1023 13.4659C3.15226 13.7888 3.31616 14.0834 3.56448 14.2965C3.8128 14.5096 4.12922 14.6272 4.45675 14.6282H4.75201V4.98516C5.69474 5.19157 6.60571 5.52232 7.46092 5.96869C8.48357 6.50156 9.41671 7.19026 10.2267 8.00996C11.0372 8.82704 11.7146 9.76558 12.2344 10.7916C12.7636 11.833 13.1185 12.9539 13.2851 14.1096L13.3057 14.2558L13.3689 14.7105H18.5071V14.4172C18.5075 14.0905 18.6252 13.7746 18.8389 13.5271C19.0526 13.2795 19.3482 13.1166 19.6721 13.068L19.7464 13.0577V11.6329L19.668 11.6235Z" fill="#61A1FF"></path></svg>