<svg xmlns="http://www.w3.org/2000/svg" width="55" height="55" viewBox="0 0 55 55" fill="none"><path d="M28.1829 49.5431V49.2925L31.0736 49.2874C33.949 41.3976 41.1757 35.674 49.5357 34.6689V20.3752H49.7864C50.6664 20.3752 51.3904 21.035 51.5081 21.8918H53.0327C53.1555 21.0325 53.8794 20.3752 54.7543 20.3752H54.9999V39.9424H52.2678C43.826 39.9424 36.5583 46.2056 35.3611 54.5097L35.3304 54.7297L28.1829 54.7348V54.4893C28.1829 53.6197 27.5255 52.8985 26.6711 52.7758V51.2566C27.5255 51.139 28.1829 50.4178 28.1829 49.5431Z" fill="#D1CCC5"></path><path d="M3.8147e-06 21.7438H0.245586C1.12047 21.7438 1.84186 21.084 1.96465 20.2272H3.48931C3.60698 21.0866 4.33093 21.7438 5.20838 21.7438H5.45907L5.46419 34.6744C13.8216 35.682 21.0509 41.4056 23.9314 49.2929H28.1805V49.5435C28.1805 50.4182 27.523 51.1394 26.6686 51.257V52.7761C27.523 52.8989 28.1805 53.6201 28.1805 54.4896V54.73H19.6695L19.6388 54.5101C18.4442 46.206 11.1765 39.9428 2.73209 39.9428H3.8147e-06V21.7438Z" fill="#D8FF6C"></path><path d="M2.73209 0C12.1972 0 20.703 5.93844 23.9263 14.7873H26.817V15.0328C26.817 15.9023 27.4744 16.6235 28.3288 16.7463V18.2654C27.4744 18.3831 26.817 19.1043 26.817 19.9789V20.2296H19.6644L19.6337 20.0096C18.5849 12.7106 12.7677 6.82844 5.45907 5.65968V21.7462H5.20837C4.33093 21.7462 3.60698 21.0863 3.4893 20.2296H1.96465C1.84186 21.0889 1.11791 21.7462 0.245584 21.7462H0V0H2.73209Z" fill="#61A1FF"></path><path d="M26.817 15.0328V14.7873L31.0685 14.7873C34.2969 5.93844 42.8027 0 52.2678 0H54.9999V20.3752H54.7543C53.8794 20.3752 53.1555 21.035 53.0327 21.8918H51.5081C51.3904 21.0325 50.6664 20.3752 49.7864 20.3752H49.5357V5.65968C42.2297 6.82844 36.4099 12.7106 35.3611 20.0096L35.3304 20.2296H26.8194V19.9789C26.8194 19.1043 27.4769 18.3831 28.3313 18.2654V16.7463C27.4743 16.6235 26.817 15.9023 26.817 15.0328Z" fill="#86F1A7"></path></svg>